<?xml version="1.0" standalone="no"?><!DOCTYPE svg PUBLIC "-//W3C//DTD SVG 1.1//EN" "http://www.w3.org/Graphics/SVG/1.1/DTD/svg11.dtd"><svg t="1510552958123" class="icon" style="" viewBox="0 0 1024 1024" version="1.1" xmlns="http://www.w3.org/2000/svg" p-id="1079" xmlns:xlink="http://www.w3.org/1999/xlink" width="64" height="64"><defs><style type="text/css"></style></defs><path d="M916.8061632 997.45185173l-61.47034027 0c0.21238507-5.0365632 0.7585184-10.0124448 0.7585184-15.17037013 0-192.72438507-156.31549653-348.9185184-349.1612448-348.9185184-192.84574827 0-349.19158507 156.19413333-349.19158506 348.9185184 0 5.1579264 0.5764736 10.13380693 0.7585184 15.17037013L97.02968853 997.45185173c0-174.64130347 108.61985173-323.49297813 261.59786667-383.2035552-97.21173333-52.88391147-163.23318507-156.2244736-163.23318507-275.0084736C195.39437013 166.5403264 334.8707552 26.54814827 506.93309653 26.54814827 678.96509653 26.54814827 818.4414816 166.5403264 818.4414816 339.23982187c0 118.81434027-66.02145173 222.1245632-163.23318507 275.0084736C808.18631147 673.9588736 916.8061632 822.81054827 916.8061632 997.45185173zM752.8448 339.23982187c0-136.32094827-110.10654827-246.85226667-245.91170347-246.85226667-135.8658368 0-245.9420448 110.5313184-245.9420448 246.85226667s110.10654827 246.85226667 245.9420448 246.85226666C642.76859307 586.06174827 752.8448 475.56077013 752.8448 339.23982187z" fill="#1296db" p-id="1080"></path></svg>