<?xml version="1.0" standalone="no"?><!DOCTYPE svg PUBLIC "-//W3C//DTD SVG 1.1//EN" "http://www.w3.org/Graphics/SVG/1.1/DTD/svg11.dtd"><svg t="1510552120931" class="icon" style="" viewBox="0 0 1024 1024" version="1.1" xmlns="http://www.w3.org/2000/svg" p-id="868" xmlns:xlink="http://www.w3.org/1999/xlink" width="64" height="64"><defs><style type="text/css"></style></defs><path d="M371.481128 855.33142366c-27.213805 0-55.34858601-3.107781-83.67779399-9.336646-3.232624-0.71631399-6.62181399-1.115404-9.897418-1.115404-5.662977 0-11.37404799 1.034563-16.717753 3.11392101l-121.343649 46.68527499 19.309788-67.595514c5.1503-17.87715901-0.953721-37.11122299-15.403828-48.84547501C80.945055 727.40484666 46.46884601 660.04776266 46.46884601 588.37846566c0-147.31823001 145.80373701-267.11054699 325.01228199-267.110547 179.284269 0 325.05014398 119.79129399 325.050144 267.110547C696.531272 735.54627066 550.765397 855.33142366 371.481128 855.33142366L371.481128 855.33142366zM371.481128 274.90191566c-205.18312599 0-371.46015001 140.29834998-371.46014999 313.477574 0 88.908936 44.05640199 168.955016 114.52331299 225.93679899L69.61398599 971.37434667 277.90591598 891.32826566c29.92966 6.540973 61.173245 10.45204999 93.57521202 10.45205 205.182103 0 371.54201501-140.29834998 371.54201501-313.40185C743.02314201 415.19924166 576.66322999 274.90191566 371.481128 274.90191566L371.481128 274.90191566zM1021.66328 356.14424067c0-173.179224-166.35274899-313.47757399-371.499036-313.47757401-153.308665 0-284.78713801 78.29008701-341.569376 190.09754599 18.313088-2.316765 36.94954-3.83125801 55.94108-4.14848299C419.76685399 145.61638666 527.025717 89.10941866 650.163221 89.10941866c179.246407 0 325.05014398 119.792317 325.050144 267.03482201 0 71.668273-34.55193401 139.10210499-97.28162699 189.94098-14.481829 11.64829401-20.629853 30.96422201-15.48466901 48.75849399l19.315928 67.676355-95.967702-36.94851699c-1.912559 15.721053-5.387707 31.04404-9.53619 46.12962l175.772282 67.51467299-44.96612099-157.058059C977.611995 525.09414065 1021.66328 445.04805966 1021.66328 356.14424067L1021.66328 356.14424067z" fill="#1296db" p-id="869"></path></svg>