<?xml version="1.0" standalone="no"?><!DOCTYPE svg PUBLIC "-//W3C//DTD SVG 1.1//EN" "http://www.w3.org/Graphics/SVG/1.1/DTD/svg11.dtd"><svg t="1510552493810" class="icon" style="" viewBox="0 0 1032 1024" version="1.1" xmlns="http://www.w3.org/2000/svg" p-id="1300" xmlns:xlink="http://www.w3.org/1999/xlink" width="64.5" height="64"><defs><style type="text/css"></style></defs><path d="M384.717757 800.059813c279.446729 0 482.33271-176.08972 482.33271-432.568224 0-24.882243 0-21.054206 0-47.850467l-1.914019-26.796262C945.525234 357.921495 995.28972 451.708411 995.28972 555.065421c0 116.75514-63.162617 220.11215-160.77757 287.102804l0 181.831776-179.917757-111.013084c-24.882243 3.828037-49.764486 5.742056-76.560748 5.742056-124.411215 0-212.456075-45.936449-289.016822-120.583178C289.016822 800.059813 348.351402 800.059813 384.717757 800.059813z" fill="#1296db" p-id="1301"></path><path d="M417.256075 0C185.659813 0 0 162.691589 0 363.663551c0 116.75514 44.02243 216.284112 128.239252 287.102804l0 181.831776 181.831776-105.271028c24.882243 3.828037 82.302804 7.656075 107.185047 7.656075 229.682243 0 384.717757-170.347664 384.717757-371.319626C801.973832 162.691589 608.657944 0 417.256075 0zM208.628037 415.342056c-26.796262 0-47.850467-21.054206-47.850467-47.850467 0-26.796262 21.054206-47.850467 47.850467-47.850467s47.850467 21.054206 47.850467 47.850467C256.478505 394.28785 235.424299 415.342056 208.628037 415.342056zM401.943925 415.342056c-26.796262 0-47.850467-21.054206-47.850467-47.850467 0-26.796262 21.054206-47.850467 47.850467-47.850467 26.796262 0 47.850467 21.054206 47.850467 47.850467C449.794393 394.28785 428.740187 415.342056 401.943925 415.342056zM593.345794 415.342056c-26.796262 0-47.850467-21.054206-47.850467-47.850467 0-26.796262 21.054206-47.850467 47.850467-47.850467 26.796262 0 47.850467 21.054206 47.850467 47.850467C643.11028 394.28785 620.142056 415.342056 593.345794 415.342056z" fill="#1296db" p-id="1302"></path></svg>