<?xml version="1.0" standalone="no"?><!DOCTYPE svg PUBLIC "-//W3C//DTD SVG 1.1//EN" "http://www.w3.org/Graphics/SVG/1.1/DTD/svg11.dtd"><svg t="1510567583793" class="icon" style="" viewBox="0 0 1024 1024" version="1.1" xmlns="http://www.w3.org/2000/svg" p-id="1322" xmlns:xlink="http://www.w3.org/1999/xlink" width="32" height="32"><defs><style type="text/css"></style></defs><path d="M679.57349376 425.12168277l-51.07180203 0c0 65.81876395-53.34916323 119.16792718-119.16210517 119.16792719-65.81410589 0-119.17491314-53.34916323-119.17491314-119.16792719l-51.075295 0c0 94.0226469 76.22872519 170.23972921 170.24904419 170.23972921C603.35990443 595.36141312 679.57349376 519.14432967 679.57349376 425.12168277L679.57349376 425.12168277z" fill="#1296db" p-id="1323"></path><path d="M1003.0321243 602.37046899c0-86.40233586-48.29030173-161.56107435-119.47879424-200.34141413C880.2735104 198.01428992 714.1309349 33.57507811 509.33842147 33.57507811c-204.81580032 0-370.98398947 164.47064747-374.22771541 368.51917711-71.18849251 38.79547563-119.47064434 113.91812039-119.47064433 200.27621377 0 105.46068139 72.07102805 193.97737699 169.87996273 220.20661588L134.35507826 986.9150026l51.52471381 0 17.02781497-51.07180204 46.06533405-153.56818885c-1.19805952 0.02212181-2.30646898 0.35278165-3.51034938 0.35278164-98.72057799 0-178.74723385-80.03014883-178.74723384-178.75538375 0-58.64903453 28.63467293-110.23196274 72.26197219-142.82407367 19.3598976 136.41695801 112.05874119 248.93792483 236.97246436 296.62395734L320.84021703 935.84320056l0.02561479 0-15.8204416 51.07180204 51.07180203 0 17.030144-51.07180204 73.22251605-210.51968169c-148.48138354-29.3146203-260.49006023-160.14645589-260.49006023-317.22266625 0-178.64244679 144.81967559-323.45397248 323.45863054-323.45397248 178.6401189 0 323.44931555 144.81152569 323.44931556 323.45397248 0 157.07621035-111.99819776 287.90920875-260.47958244 317.22266625l73.22251606 210.51968169 17.01733603 51.07180204 51.07413106 0-15.95782827-51.07063809 0.15717945 0-55.12820622-178.18255019c124.94748786-47.69068942 217.67427413-160.23144903 237.00739413-296.69032277 43.64825714 32.58861795 72.29690083 84.20880384 72.29690084 142.902082 0 98.72523491-79.95563463 178.75538375-178.5982043 178.75538375-1.21086635 0-2.33091869-0.33182379-3.53712811-0.35743858l46.0327333 153.57168184-0.13040071 0 17.02082901 51.07180204 51.59107811 0L833.25811257 822.58639986C931.00068181 796.3664748 1003.0321243 707.84046536 1003.0321243 602.37046899L1003.0321243 602.37046899z" fill="#1296db" p-id="1324"></path></svg>