<?xml version="1.0" standalone="no"?><!DOCTYPE svg PUBLIC "-//W3C//DTD SVG 1.1//EN" "http://www.w3.org/Graphics/SVG/1.1/DTD/svg11.dtd"><svg t="1510567557712" class="icon" style="" viewBox="0 0 1024 1024" version="1.1" xmlns="http://www.w3.org/2000/svg" p-id="1199" xmlns:xlink="http://www.w3.org/1999/xlink" width="32" height="32"><defs><style type="text/css"></style></defs><path d="M983.34025812 529.61032032a221.09201719 221.09201719 0 0 0-23.71780874-55.20445594 231.64849781 231.64849781 0 0 0-36.90198469-46.29313969c-3.88441969-3.79302094-7.86023719-7.42609594-11.97315188-10.96777312a405.76188844 405.76188844 0 0 1-151.88080125 304.42423968 397.37611313 397.37611313 0 0 1-72.57009562 46.20174188l58.609035 193.48978969 3.17608406 10.4879325h127.66030312l-50.06331187-162.93997219c48.60094219-13.06992937 88.4048175-39.78102562 119.43447469-80.13328875s46.52163563-86.37120937 46.52163562-138.01113938l0.04569844-0.04569937c0-20.77021969-2.7647925-41.12914781-8.34007688-61.00823531z m-718.00066687 192.3701625a405.487695 405.487695 0 0 1-152.40634031-304.83553125c-4.11291469 3.54167625-8.08873219 7.19760094-11.97315188 10.96777312a231.64849781 231.64849781 0 0 0-36.90198469 46.29313969A225.86756813 225.86756813 0 0 0 32.00022875 590.61855563l0.02284969 0.04569937c0 51.63993 15.51482813 97.65887531 46.54448437 138.01113938 31.02965719 40.35226313 70.81068188 67.06335938 119.411625 80.13328875l-50.04046219 162.93997219h127.61460469l3.26748188-10.60218 59.22597187-193.07849813a396.64492781 396.64492781 0 0 1-72.70719281-46.08749437z m610.40224687-318.27105282c0-3.93011812-0.09139781-7.86023719-0.20564531-11.76750562C869.41251969 193.63088532 708.94029594 34.78097813 511.84028188 34.78097813S154.26804406 193.63088532 148.14437094 391.94192438a402.83714906 402.83714906 0 0 0-0.20564531 11.76750562c0 157.02194531 96.76774406 291.12581531 233.15656687 344.38806094l-68.61712781 223.65116438h398.72423437l-67.84024312-223.9482075c135.97753125-53.49074156 232.37968312-187.36611562 232.37968219-344.09101782zM511.84028188 623.63612157c-45.97324688 0-85.20588375-16.45165875-117.67506094-49.40067657-32.49202688-32.92616719-48.73803937-72.84429-48.73803938-119.73151781h50.04046219c0 10.67072906 1.46236969 21.20436 4.38710906 31.60089469a117.67506094 117.67506094 0 0 0 53.14799906 70.33084219 121.10248969 121.10248969 0 0 0 27.64792688 12.01885125c9.93954375 2.94758906 20.17613156 4.45565719 30.73261219 4.45565718 32.2178325 0 59.72866219-11.58471 82.57818843-34.73127937 22.82667656-23.16942 34.22859094-51.06869156 34.22859094-83.69781563h50.08616156v0.02284969c0 46.88722781-16.26886312 86.80535063-48.73803937 119.73151781-32.49202688 32.94901687-71.7475125 49.40067562-117.69791063 49.40067657z" fill="#1296db" p-id="1200"></path></svg>