<?xml version="1.0" standalone="no"?><!DOCTYPE svg PUBLIC "-//W3C//DTD SVG 1.1//EN" "http://www.w3.org/Graphics/SVG/1.1/DTD/svg11.dtd"><svg t="1510568530498" class="icon" style="" viewBox="0 0 1024 1024" version="1.1" xmlns="http://www.w3.org/2000/svg" p-id="1391" xmlns:xlink="http://www.w3.org/1999/xlink" width="32" height="32"><defs><style type="text/css"></style></defs><path d="M647.5 594.6c-31.7-22.4-66.2-40.2-102.5-52.8 77-46.8 124.2-130.2 124.2-220.6 0-142.3-115.8-258.1-258.1-258.1-142.4 0-258.3 115.8-258.3 258.3 0 48.3 13.6 95.7 39.2 136.6 21.8 34.7 51.3 63.7 86.1 84.6-37.2 12.7-72 30.6-104.3 53.4-35.1 24.8-65.8 54.9-91.8 89.1C28.4 756.5 0 841.4 0 930.7c0 16.6 13.6 30.2 30.2 30.2l760.5-1.2c16.6 0 30.2-13.6 30.2-30.2 0-89.4-28.2-174.3-81.9-245.7-25.6-34.4-56.4-64.4-91.5-89.2z" fill="#1296db" p-id="1392"></path><path d="M959.6 645.8c-38.9-55.9-91.2-98.1-152-122.1 26.9-18.8 49.5-44.1 65.8-73.5 19-34.1 29-72.9 29-112.4 0-123.2-95.4-223.3-212.5-223.3-16.6 0-30.2 13.6-30.2 30.2s16.9 38 29.9 48.4c59.5 48.6 97.8 184.3 28.1 263.5-31.2 35.4-59.2 40.7-58 74.4v0.2c0 16.6 15.2 23.2 30.2 30.2 113 53.7 178.1 156.2 203.8 299.2 6.1 34.2 63.5 23.9 100.1 22.7 16.6-0.4 30.2-13.6 30.2-30.2-0.2-75-22.4-146.6-64.4-207.3z" fill="#1296db" p-id="1393"></path></svg>