<?xml version="1.0" standalone="no"?><!DOCTYPE svg PUBLIC "-//W3C//DTD SVG 1.1//EN" "http://www.w3.org/Graphics/SVG/1.1/DTD/svg11.dtd"><svg t="1510568516479" class="icon" style="" viewBox="0 0 1024 1024" version="1.1" xmlns="http://www.w3.org/2000/svg" p-id="1263" xmlns:xlink="http://www.w3.org/1999/xlink" width="32" height="32"><defs><style type="text/css"></style></defs><path d="M1016.12307733 884.49093973v-5.60136746c-2.80068373-148.43623893-92.42256427-274.46700907-218.45333333-336.0820512v-5.60136747c58.81435947-47.61162347 95.223248-117.62871787 95.22324693-196.04786347 0-134.43282027-103.6252992-243.65948693-235.25743573-252.06153813l-2.80068373 2.80068373c-22.40546987 0-39.20957227 19.60478613-39.20957227 39.20957334V133.9076928c0 22.40546987 16.8041024 39.20957227 39.20957227 39.20957227 5.60136747 0 11.20273493-2.80068373 16.8041024-2.80068374 2.80068373 2.80068373 2.80068373 5.60136747 5.60136853 8.4020512 72.81777813 19.60478613 126.03076907 84.02051307 126.03076907 162.4396576 0 61.6150432-33.6082048 114.82803413-84.02051307 145.63555627l-2.80068373 2.80068373c-16.8041024 5.60136747-30.80752107 19.60478613-36.40888854 36.40888854l-5.60136853 5.60136746 2.8006848 2.80068374V551.20957227c0 33.6082048 25.2061536 58.81435947 58.8143584 58.81435946 5.60136747 0 8.4020512 0 14.00341867-2.80068373 2.80068373 5.60136747 8.4020512 11.20273493 11.20273493 14.00341867 98.02393173 47.61162347 165.2403424 145.6355552 168.04102613 260.46358933v5.60136747c0 22.40546987 19.60478613 42.010256 42.010256 42.01025706s42.010256-19.60478613 42.01025707-42.01025706l2.80068373-2.80068374z m-252.0615392-5.60136746c-2.80068373-151.23692267-92.42256427-277.2676928-224.0547008-336.0820512 58.81435947-47.61162347 98.02393173-117.62871787 98.02393174-198.8485472 0-140.03418773-112.0273504-252.06153813-252.06153814-252.06153814s-252.06153813 112.0273504-252.06153813 252.06153814c0 81.21982933 39.20957227 154.0376064 98.02393067 198.8485472-128.8314528 58.81435947-218.45333333 184.84512853-224.0547008 333.28136746v14.00341867c0 22.40546987 19.60478613 42.010256 42.01025706 42.01025707s42.010256-19.60478613 42.010256-42.01025707c0-154.0376064 120.4294016-282.86906027 271.66632534-294.07179413H413.97606827c148.43623893 11.20273493 268.86564053 134.43282027 271.66632533 288.47042666v5.60136747c0 22.40546987 19.60478613 42.010256 42.010256 42.01025707s42.010256-19.60478613 42.010256-42.01025707v-2.80068373c-5.60136747-5.60136747-5.60136747-5.60136747-5.60136747-8.4020512zM385.96923093 509.19931627c-92.42256427 0-168.04102613-75.61846187-168.04102613-168.04102614s75.61846187-168.04102613 168.04102613-168.04102506 168.04102613 75.61846187 168.04102507 168.04102506-75.61846187 168.04102613-168.04102507 168.04102614z" fill="#1296db" p-id="1264"></path></svg>