<?xml version="1.0" standalone="no"?><!DOCTYPE svg PUBLIC "-//W3C//DTD SVG 1.1//EN" "http://www.w3.org/Graphics/SVG/1.1/DTD/svg11.dtd"><svg t="1512854069303" class="icon" style="" viewBox="0 0 1024 1024" version="1.1" xmlns="http://www.w3.org/2000/svg" p-id="4753" xmlns:xlink="http://www.w3.org/1999/xlink" width="64" height="64"><defs><style type="text/css"></style></defs><path d="M512 1011.32190493C236.2321408 1011.32190493 12.67809507 787.76670322 12.67809507 512S236.2321408 12.67809507 512 12.67809507s499.32190493 223.55404573 499.32190493 499.32190493-223.55404573 499.32190493-499.32190493 499.32190493z m0-915.42349256c-229.80712789 0-416.10158763 186.2967717-416.10158763 416.10158763s186.29445973 416.10158763 416.10158763 416.10158763 416.10158763-186.29445973 416.10158763-416.10158763-186.29445973-416.10158763-416.10158763-416.10158763z m274.48141255 452.00884281C768.84910763 684.08343438 652.97868573 789.40105842 512 789.40105842c-141.22719005 0-257.25943011-105.68864768-274.57503459-242.21389028C237.71970333 549.50231154 234.59894158 532.1774592 234.59894158 525.87005269a41.61015922 41.61015922 0 0 1 82.48982869-7.79150222c1.05065699 5.54108587 2.23192291 9.90899655 2.7543609 14.76582742C330.31964445 630.17169465 411.88595826 706.18074112 512 706.18074112c98.97091869 0 179.81945629-74.28569202 191.77197454-170.01679758 0.84491719-6.77205333 1.5314853-13.9474944 4.32861298-22.81854863a41.62056078 41.62056078 0 0 1 80.69596729 5.42434646q0.231168 1.33499221 0.37333561 2.6988817a86.96638805 86.96638805 0 0 1-0.80908629 11.8369337c-0.5987237 4.61294819-1.33961614 10.4291237-1.87939158 14.60169841zM678.44063459 401.03957618a55.48021191 55.48021191 0 1 1 55.48021192-55.48021077 55.48021191 55.48021191 0 0 1-55.48021192 55.48021077z m-332.88126918 0a55.48021191 55.48021191 0 1 1 55.48021077-55.48021077 55.48021191 55.48021191 0 0 1-55.48021077 55.48021077z" fill="#1296db" p-id="4754"></path></svg>