<?xml version="1.0" standalone="no"?><!DOCTYPE svg PUBLIC "-//W3C//DTD SVG 1.1//EN" "http://www.w3.org/Graphics/SVG/1.1/DTD/svg11.dtd"><svg t="1512853991254" class="icon" style="" viewBox="0 0 1024 1024" version="1.1" xmlns="http://www.w3.org/2000/svg" p-id="4632" xmlns:xlink="http://www.w3.org/1999/xlink" width="64" height="64"><defs><style type="text/css"></style></defs><path d="M512 0C229.205333 0 0 229.205333 0 512s229.205333 512 512 512 512-229.205333 512-512S794.794667 0 512 0z m311.082667 823.082667a437.717333 437.717333 0 0 1-139.861334 94.293333c-54.186667 23.04-111.786667 34.602667-171.221333 34.602667-59.392 0-116.992-11.562667-171.221333-34.474667a440.448 440.448 0 0 1-139.861334-94.293333 437.717333 437.717333 0 0 1-94.293333-139.946667A436.608 436.608 0 0 1 71.936 512c0-59.392 11.605333-116.992 34.56-171.221333a440.448 440.448 0 0 1 94.293333-139.861334 437.717333 437.717333 0 0 1 139.861334-94.293333c54.314667-23.04 111.914667-34.645333 171.306666-34.645333 59.392 0 116.992 11.605333 171.221334 34.56 52.394667 22.186667 99.413333 53.845333 139.861333 94.293333 40.405333 40.362667 72.234667 87.466667 94.293333 139.861333 23.04 54.314667 34.602667 111.914667 34.602667 171.306667a437.461333 437.461333 0 0 1-128.853333 311.082667z m-182.784-57.6a35.968 35.968 0 0 1-36.010667-35.968c0-50.901333-41.386667-92.330667-92.288-92.330667-50.901333 0-92.288 41.386667-92.288 92.330667a35.968 35.968 0 1 1-72.021333 0A164.48 164.48 0 0 1 512 565.205333a164.48 164.48 0 0 1 164.266667 164.266667 35.968 35.968 0 0 1-35.968 36.010667zM194.218667 382.421333a59.989333 59.989333 0 1 1 119.978666 0 59.989333 59.989333 0 0 1-119.978666 0z m515.285333 0a59.989333 59.989333 0 1 1 119.978667 0 59.989333 59.989333 0 0 1-119.978667 0z" fill="#1296db" p-id="4633"></path></svg>