<?xml version="1.0" standalone="no"?><!DOCTYPE svg PUBLIC "-//W3C//DTD SVG 1.1//EN" "http://www.w3.org/Graphics/SVG/1.1/DTD/svg11.dtd"><svg t="1512854095050" class="icon" style="" viewBox="0 0 1024 1024" version="1.1" xmlns="http://www.w3.org/2000/svg" p-id="4874" xmlns:xlink="http://www.w3.org/1999/xlink" width="64" height="64"><defs><style type="text/css"></style></defs><path d="M953.214894 810.110602v-0.36069 0.36069z m0 0M872.780938 149.686509C673.319156-49.775273 349.058501-49.775273 149.596718 149.686509c-199.461782 199.461782-199.461782 523.722437 0 723.18422 199.461782 199.461782 523.722437 199.461782 723.18422 0 199.461782-199.461782 199.461782-523.722437 0-723.18422m-51.939415 671.244805c-170.606552 170.606552-448.698838 170.606552-619.305389 0C30.568892 650.324762 30.568892 372.232476 201.536134 201.625925c170.606552-170.606552 448.698838-170.967242 619.305389 0 170.967242 170.606552 170.967242 448.698838 0 619.305389" fill="#1296db" p-id="4875"></path><path d="M351.583333 457.355407c30.297992 0 55.185629-24.526946 55.185629-55.185629 0-30.297992-24.526946-55.185629-55.185629-55.185629-30.297992 0-55.185629 24.887636-55.185628 55.185629 0.36069 30.658683 24.887636 55.185629 55.185628 55.185629M668.990871 457.355407c30.297992 0 55.185629-24.887636 55.185629-55.185629S699.288864 346.984149 668.990871 346.984149s-55.185629 24.526946-55.185628 55.185629 24.526946 55.185629 55.185628 55.185629M670.794323 642.389574l-2.885523 1.082071c-49.414583 22.362804-102.436069 33.544206-157.261007 33.544206-56.62839 0-110.371257-11.542092-159.42515-33.904896l-2.885523-1.082072c-1.803452-0.36069-4.328285-1.082071-7.574498-1.082071-18.034519 0-32.822825 14.788306-32.822825 32.822825 0 8.656569 3.967594 16.952448 10.820711 23.444875l-0.36069 2.164142 8.295879 3.606904c58.792533 26.691088 122.634731 40.397323 184.673477 40.397323 63.120817 0 125.159563-13.706235 185.034166-40.758013 10.460021-5.771046 16.952448-16.952448 16.952449-28.855231-0.36069-21.280733-19.477281-38.593871-42.561466-31.380063" fill="#1296db" p-id="4876"></path></svg>